<svg id="Layer_1" data-name="Layer 1" xmlns="http://www.w3.org/2000/svg" xmlns:xlink="http://www.w3.org/1999/xlink" viewBox="0 0 75 110"><defs><style>.cls-1{fill:#dff1ff;}.cls-2{clip-path:url(#clip-path);}.cls-3{fill:#addcff;}.cls-4{fill:#4db748;}.cls-5{fill:#7c3d6d;}.cls-6{opacity:0.18;fill:url(#radial-gradient);}.cls-7{fill:#ff9fe5;}</style><clipPath id="clip-path"><rect class="cls-1" width="75" height="110" rx="5.48"/></clipPath><radialGradient id="radial-gradient" cx="35.31" cy="53.6" fx="62.2903876732679" r="26.99" gradientUnits="userSpaceOnUse"><stop offset="0.32" stop-color="#fff"/><stop offset="0.46" stop-color="#fdfdfd"/><stop offset="0.52" stop-color="#f6f6f6"/><stop offset="0.57" stop-color="#e9e9e9"/><stop offset="0.61" stop-color="#d7d7d7"/><stop offset="0.64" stop-color="#bfbfbf"/><stop offset="0.67" stop-color="#a2a2a2"/><stop offset="0.7" stop-color="#7f7f7f"/><stop offset="0.73" stop-color="#575757"/><stop offset="0.75" stop-color="#2b2b2b"/><stop offset="0.77"/></radialGradient></defs><g id="Card"><rect class="cls-1" width="75" height="110" rx="5.48"/><g class="cls-2"><path class="cls-3" d="M-65.33,23.67A395.92,395.92,0,0,0-13.74,36.26c17.85,3,35.81,5.35,53.57,8.87s35.31,8.58,53,12.95a342,342,0,0,0,54.32,9.17c7.39.61,9-11.35,1.75-13-16.2-3.58-32.94-4-49.48-4.32-16.69-.33-33.39-.21-50.08,0-16.42.2-32.83.62-49.25,1.15s-33.39-.25-49.4,3.94c-6.78,1.77-9.18,10.79-4.14,15.69,5.44,5.28,12.41,7.32,19.69,8.62,8.3,1.48,16.68,2.5,25.07,3.33,16.18,1.58,32.41,2.57,48.59,4.21a571.51,571.51,0,0,1,94.7,17.52c8.59,2.38,17.13,4.93,25.66,7.5,8.84,2.65,17.87,4.24,26.77,6.68,8,2.19,12.93-9.23,5.67-13.46-7.07-4.11-14-8.65-21.63-11.65-7.17-2.82-14.45-5.24-21.86-7.38a388.82,388.82,0,0,0-46-10.18C71.71,70.91,40,67.58,8.29,65.17c-8.83-.67-17.67-1.35-26.46-2.42-4.43-.54-8.86-1.2-13.24-2.06-3-.59-6.43-1.1-8.82-3.21l-4.14,15.69C-29.93,68-13.14,68.59,2,67.88q24.12-1.14,48.27-1.74c16-.4,32.07-.72,48.11-.66,16.27.06,32.46,1.28,48.71,1.77V54.07c-36.06.13-70.73-14.53-105.84-21C24,29.89,6.65,27.78-10.64,25s-35.22-5.74-51.7-12.18c-6.64-2.6-10,8.67-3,10.84Z"/></g><path class="cls-3" d="M69.89,1A4.11,4.11,0,0,1,74,5.11v99.78A4.11,4.11,0,0,1,69.89,109H5.11A4.11,4.11,0,0,1,1,104.89V5.11A4.11,4.11,0,0,1,5.11,1H69.89m0-1H5.11A5.13,5.13,0,0,0,0,5.11v99.78A5.13,5.13,0,0,0,5.11,110H69.89A5.13,5.13,0,0,0,75,104.89V5.11A5.13,5.13,0,0,0,69.89,0Z"/></g><g id="Image"><ellipse id="Planet" class="cls-4" cx="36.22" cy="54.6" rx="21.94" ry="20.03"/><g id="Clouds"><path class="cls-5" d="M22.78,38.77c-2.38,3.43-4.9,6.77-7.56,10a18.54,18.54,0,0,0-.89,4.48c.87-.83,1.72-1.7,2.54-2.57,1.62-1.72,3.19-3.47,4.69-5.3a119.72,119.72,0,0,0,7.17-9.6A22.33,22.33,0,0,0,22.78,38.77Zm31.41,4.34c-1.76,2.06-3.58,4.07-5.47,6A124.77,124.77,0,0,1,26.77,66.9c-1.5.95-3.12,2-4.81,2.92a20.66,20.66,0,0,0,2.4,1.63c.88-.43,1.75-.9,2.6-1.38a107.84,107.84,0,0,0,12.28-8.13A117.26,117.26,0,0,0,56.12,46.16,19.84,19.84,0,0,0,54.19,43.11Zm-7,18.78a3.49,3.49,0,0,0-1.23.93c-.35.35-.72.67-1,1-.63.73-1.23,1.48-1.87,2.19-1.28,1.43-2.61,2.81-4,4.12a52.85,52.85,0,0,1-5.17,4.35c.77.07,1.55.11,2.34.11s1.45,0,2.16-.09a50.86,50.86,0,0,0,6.88-6.22c.76-.82,1.5-1.66,2.21-2.53a9.13,9.13,0,0,0,1-1.42,2.9,2.9,0,0,0,.61-1.59C49,62.1,47.75,61.68,47.2,61.89ZM31.4,53.53c-2.72,2.11-5.75,4.2-9.12,5.1-.34.08-.18.44,0,.6a1.33,1.33,0,0,0,1,.38,24.2,24.2,0,0,0,4.85-1.46,32,32,0,0,0,4.37-2.4,57,57,0,0,0,7.61-6,77.65,77.65,0,0,0,9.76-10.82A22.29,22.29,0,0,0,47,37.16c-.79,1.09-1.59,2.17-2.43,3.22A80.37,80.37,0,0,1,31.4,53.53Zm.3-7.19c1.39-1.25,2.8-2.46,4.07-3.83s2.44-2.7,3.58-4.12c.82-1,1.61-2.1,2.39-3.18a22.76,22.76,0,0,0-3.22-.53c-1.45,2.08-3,4.09-4.63,6-1.31,1.54-2.59,3.13-4,4.6C29.31,45.92,31.17,46.82,31.7,46.34Z"/></g><ellipse class="cls-6" cx="36.22" cy="54.6" rx="21.94" ry="20.03"/><path class="cls-7" d="M62.1,34.15c-.85-1.16-4.41-.19-10,2.72-.93.48-1.9,1-2.9,1.57l.08.06c1-.56,1.94-1.08,2.86-1.55,4-2.09,7-3.18,8.68-3.18A1.45,1.45,0,0,1,62,34.2c.81,1.1-1.19,4.26-5.5,8.68A153.12,153.12,0,0,1,38.79,58a154.48,154.48,0,0,1-19.58,12.6c-5.48,2.84-9.08,3.84-9.9,2.74s1.19-4.26,5.5-8.67q.74-.75,1.53-1.53l0-.09c-.54.53-1.06,1.05-1.55,1.55-4.41,4.52-6.37,7.64-5.51,8.8a1.52,1.52,0,0,0,1.31.47c1.66,0,4.65-1.08,8.7-3.19A153.85,153.85,0,0,0,38.85,58,155.13,155.13,0,0,0,56.6,42.94C61,38.43,63,35.3,62.1,34.15Z"/><path class="cls-7" d="M60.22,35.54c-.8-1.07-4.1-.17-9.3,2.53-.42.21-.85.44-1.29.68l.09.06L51,38.15c3.73-1.94,6.53-3,8-3a2.31,2.31,0,0,1,.7.1.9.9,0,0,1,.44.31c.75,1-1.11,3.95-5.11,8a142.26,142.26,0,0,1-16.47,14,142.42,142.42,0,0,1-18.19,11.7c-3.73,1.94-6.53,3-8,3a1.36,1.36,0,0,1-1.14-.4c-.75-1,1.11-4,5.11-8.06l.29-.29-.05-.08-.3.31c-4.1,4.2-5.92,7.1-5.12,8.17a1.43,1.43,0,0,0,1.22.44c1.54,0,4.32-1,8.09-3A143.31,143.31,0,0,0,38.62,57.73a142.64,142.64,0,0,0,16.49-14C59.2,39.52,61,36.62,60.22,35.54Z"/><path class="cls-7" d="M57.81,37.33c-.68-.91-3.36-.25-7.57,1.86l.08.06C53.25,37.79,55.46,37,56.71,37a1.91,1.91,0,0,1,.63.09.85.85,0,0,1,.4.28c.68.91-1,3.56-4.61,7.25A128.6,128.6,0,0,1,38.28,57.27,129.38,129.38,0,0,1,21.89,67.82c-4.59,2.38-7.6,3.21-8.28,2.3s.61-2.93,3.34-5.92l-.05-.09c-2.81,3.08-4,5.21-3.37,6.06a1.29,1.29,0,0,0,1.1.4c1.4,0,3.9-.91,7.3-2.67A130.16,130.16,0,0,0,38.34,57.35,129.63,129.63,0,0,0,53.2,44.71C56.89,40.92,58.53,38.3,57.81,37.33Z"/><path class="cls-7" d="M65,32c-1-1.28-4.89-.21-11.11,3-1.68.87-3.48,1.88-5.37,3l.09.06c1.87-1.11,3.65-2.11,5.32-3,4.47-2.32,7.81-3.53,9.64-3.53a1.62,1.62,0,0,1,1.36.48c.9,1.22-1.32,4.74-6.11,9.64A171,171,0,0,1,39.14,58.43a170.82,170.82,0,0,1-21.73,14c-6.08,3.15-10.09,4.26-11,3s1.32-4.73,6.11-9.63c1.06-1.1,2.23-2.23,3.49-3.41a.2.2,0,0,1,0-.08q-1.91,1.77-3.52,3.42c-4.89,5-7.06,8.48-6.11,9.76A1.71,1.71,0,0,0,7.79,76c1.84,0,5.16-1.2,9.66-3.54a169.25,169.25,0,0,0,21.74-14,169.56,169.56,0,0,0,19.7-16.75C63.78,36.74,66,33.28,65,32Z"/></g></svg>