<svg xmlns="http://www.w3.org/2000/svg" xmlns:xlink="http://www.w3.org/1999/xlink" viewBox="0 0 75 110"><defs><style>.cls-1{fill:#dff1ff;}.cls-2{clip-path:url(#clip-path);}.cls-3{fill:#addcff;}.cls-4{fill:url(#linear-gradient);}.cls-5{fill:url(#linear-gradient-2);}.cls-6{fill:#4f6375;}</style><clipPath id="clip-path"><rect class="cls-1" width="75" height="110" rx="5.48"/></clipPath><linearGradient id="linear-gradient" x1="7.7" y1="52.87" x2="67.3" y2="52.87" gradientUnits="userSpaceOnUse"><stop offset="0" stop-color="#df8300"/><stop offset="0.51" stop-color="#f1c78c"/><stop offset="0.99" stop-color="#df8300"/></linearGradient><linearGradient id="linear-gradient-2" x1="31.54" y1="51.96" x2="43.46" y2="51.96" gradientUnits="userSpaceOnUse"><stop offset="0" stop-color="#4f6375"/><stop offset="0.51" stop-color="#33404d"/><stop offset="0.99" stop-color="#4f6375"/></linearGradient></defs><g id="Layer_1" data-name="Layer 1"><g id="Card"><rect class="cls-1" width="75" height="110" rx="5.48"/><g class="cls-2"><path class="cls-3" d="M-65.33,23.67A395.92,395.92,0,0,0-13.74,36.26c17.85,3,35.81,5.35,53.57,8.87s35.31,8.58,53,12.95a342,342,0,0,0,54.32,9.17c7.39.61,9-11.35,1.75-13-16.2-3.58-32.94-4-49.48-4.32-16.69-.33-33.39-.21-50.08,0-16.42.2-32.83.62-49.25,1.15s-33.39-.25-49.4,3.94c-6.78,1.77-9.18,10.79-4.14,15.69,5.44,5.28,12.41,7.32,19.69,8.62,8.3,1.48,16.68,2.5,25.07,3.33,16.18,1.58,32.41,2.57,48.59,4.21a571.51,571.51,0,0,1,94.7,17.52c8.59,2.38,17.13,4.93,25.66,7.5,8.84,2.65,17.87,4.24,26.77,6.68,8,2.19,12.93-9.23,5.67-13.46-7.07-4.11-14-8.65-21.63-11.65-7.17-2.82-14.45-5.24-21.86-7.38a388.82,388.82,0,0,0-46-10.18C71.71,70.91,40,67.58,8.29,65.17c-8.83-.67-17.67-1.35-26.46-2.42-4.43-.54-8.86-1.2-13.24-2.06-3-.59-6.43-1.1-8.82-3.21l-4.14,15.69C-29.93,68-13.14,68.59,2,67.88q24.12-1.14,48.27-1.74c16-.4,32.07-.72,48.11-.66,16.27.06,32.46,1.28,48.71,1.77V54.07c-36.06.13-70.73-14.53-105.84-21C24,29.89,6.65,27.78-10.64,25s-35.22-5.74-51.7-12.18c-6.64-2.6-10,8.67-3,10.84Z"/></g><path class="cls-3" d="M69.89,1A4.11,4.11,0,0,1,74,5.11v99.78A4.11,4.11,0,0,1,69.89,109H5.11A4.11,4.11,0,0,1,1,104.89V5.11A4.11,4.11,0,0,1,5.11,1H69.89m0-1H5.11A5.13,5.13,0,0,0,0,5.11v99.78A5.13,5.13,0,0,0,5.11,110H69.89A5.13,5.13,0,0,0,75,104.89V5.11A5.13,5.13,0,0,0,69.89,0Z"/></g></g><g id="Item"><path class="cls-4" d="M55.15,55.87A26.28,26.28,0,0,0,60.53,51c7-8.2,8.87-19.29,4.22-24.76S50.66,23,43.67,31.2a29.11,29.11,0,0,0-6.17,12,29.11,29.11,0,0,0-6.17-12c-7-8.2-16.42-10.42-21.08-4.95S7.48,42.81,14.47,51a26.57,26.57,0,0,0,5.38,4.86c-.37.39-.73.79-1.09,1.21-6.9,8.1-9.27,18.46-5.3,23.13S26.25,82.09,33.15,74a33.82,33.82,0,0,0,4.37-6.55,34.17,34.17,0,0,0,4.41,6.64c6.86,8,15.63,10.8,19.61,6.13s1.64-15-5.22-23C55.94,56.72,55.55,56.29,55.15,55.87Z"/><ellipse class="cls-5" cx="37.5" cy="51.96" rx="5.96" ry="21.01"/><line class="cls-6" x1="39.24" y1="31.9" x2="43.15" y2="26.71"/><path class="cls-6" d="M39.2,31.87c.54-.95,1.09-1.89,1.67-2.81a8.35,8.35,0,0,1,.9-1.35,4.64,4.64,0,0,1,1.34-1l.08.06a4.87,4.87,0,0,1-.62,1.57,7.74,7.74,0,0,1-1.06,1.23c-.72.82-1.46,1.61-2.23,2.39Z"/><line class="cls-6" x1="35.86" y1="31.9" x2="31.96" y2="26.71"/><path class="cls-6" d="M35.82,31.93c-.76-.78-1.51-1.57-2.23-2.39a7.74,7.74,0,0,1-1.06-1.23,4.64,4.64,0,0,1-.61-1.57l.08-.06a4.73,4.73,0,0,1,1.33,1,7.21,7.21,0,0,1,.9,1.35c.58.92,1.14,1.86,1.67,2.81Z"/></g></svg>