<svg xmlns="http://www.w3.org/2000/svg" xmlns:xlink="http://www.w3.org/1999/xlink" viewBox="0 0 75 110"><defs><style>.cls-1{fill:#dff1ff;}.cls-2{clip-path:url(#clip-path);}.cls-3{fill:#addcff;}.cls-4{stroke:#210b0b;fill:url(#linear-gradient);}.cls-4,.cls-5{stroke-miterlimit:10;}.cls-5{fill:url(#linear-gradient-2);stroke:url(#linear-gradient-3);}</style><clipPath id="clip-path"><rect class="cls-1" width="75" height="110" rx="5.48"/></clipPath><linearGradient id="linear-gradient" x1="26.39" y1="60.63" x2="42.55" y2="60.63" gradientUnits="userSpaceOnUse"><stop offset="0" stop-color="#661300"/><stop offset="0.99" stop-color="#2b0800"/></linearGradient><linearGradient id="linear-gradient-2" x1="19.3" y1="25.06" x2="53.64" y2="46.79" gradientUnits="userSpaceOnUse"><stop offset="0" stop-color="#7c3d6d"/><stop offset="1" stop-color="#3b2459"/></linearGradient><linearGradient id="linear-gradient-3" x1="10.77" y1="35.7" x2="64.1" y2="35.7" gradientUnits="userSpaceOnUse"><stop offset="0" stop-color="#3b2459"/><stop offset="1" stop-color="#7c3d6d"/></linearGradient></defs><g id="Layer_1" data-name="Layer 1"><g id="Card"><rect class="cls-1" width="75" height="110" rx="5.48"/><g class="cls-2"><path class="cls-3" d="M-65.33,23.67A395.92,395.92,0,0,0-13.74,36.26c17.85,3,35.81,5.35,53.57,8.87s35.31,8.58,53,12.95a342,342,0,0,0,54.32,9.17c7.39.61,9-11.35,1.75-13-16.2-3.58-32.94-4-49.48-4.32-16.69-.33-33.39-.21-50.08,0-16.42.2-32.83.62-49.25,1.15s-33.39-.25-49.4,3.94c-6.78,1.77-9.18,10.79-4.14,15.69,5.44,5.28,12.41,7.32,19.69,8.62,8.3,1.48,16.68,2.5,25.07,3.33,16.18,1.58,32.41,2.57,48.59,4.21a571.51,571.51,0,0,1,94.7,17.52c8.59,2.38,17.13,4.93,25.66,7.5,8.84,2.65,17.87,4.24,26.77,6.68,8,2.19,12.93-9.23,5.67-13.46-7.07-4.11-14-8.65-21.63-11.65-7.17-2.82-14.45-5.24-21.86-7.38a388.82,388.82,0,0,0-46-10.18C71.71,70.91,40,67.58,8.29,65.17c-8.83-.67-17.67-1.35-26.46-2.42-4.43-.54-8.86-1.2-13.24-2.06-3-.59-6.43-1.1-8.82-3.21l-4.14,15.69C-29.93,68-13.14,68.59,2,67.88q24.12-1.14,48.27-1.74c16-.4,32.07-.72,48.11-.66,16.27.06,32.46,1.28,48.71,1.77V54.07c-36.06.13-70.73-14.53-105.84-21C24,29.89,6.65,27.78-10.64,25s-35.22-5.74-51.7-12.18c-6.64-2.6-10,8.67-3,10.84Z"/></g><path class="cls-3" d="M69.89,1A4.11,4.11,0,0,1,74,5.11v99.78A4.11,4.11,0,0,1,69.89,109H5.11A4.11,4.11,0,0,1,1,104.89V5.11A4.11,4.11,0,0,1,5.11,1H69.89m0-1H5.11A5.13,5.13,0,0,0,0,5.11v99.78A5.13,5.13,0,0,0,5.11,110H69.89A5.13,5.13,0,0,0,75,104.89V5.11A5.13,5.13,0,0,0,69.89,0Z"/></g></g><g id="Item"><polygon class="cls-4" points="42.55 75.04 36.14 73.48 26.39 76.03 33.71 64.12 30.07 45.23 42.55 45.23 39.6 59.27 42.55 75.04"/><path class="cls-5" d="M63.6,39.86a9.4,9.4,0,0,0-3.76-7.65A9.67,9.67,0,0,0,60,30.68c0-5.07-3.76-9.19-8.4-9.19a7.84,7.84,0,0,0-4,1.1,8.06,8.06,0,0,0-6.06-2.83,7.71,7.71,0,0,0-3.44.81,8.53,8.53,0,0,0-8-6.36,8.43,8.43,0,0,0-7.73,5.59c-.22,0-.45,0-.67,0-4.65,0-8.41,4.11-8.41,9.19a10,10,0,0,0,.86,4,9.55,9.55,0,0,0-2.85,6.88c0,5.08,3.76,9.19,8.4,9.19.23,0,.45,0,.68,0a8.43,8.43,0,0,0,7.73,5.58,8.16,8.16,0,0,0,6.8-3.81,7.82,7.82,0,0,0,7.8,1.9,8.29,8.29,0,0,0,7.23,4.51c4.53,0,8.2-3.9,8.39-8.8A9.19,9.19,0,0,0,63.6,39.86Z"/></g></svg>