<svg xmlns="http://www.w3.org/2000/svg" xmlns:xlink="http://www.w3.org/1999/xlink" viewBox="0 0 75 110"><defs><style>.cls-1{fill:#dff1ff;}.cls-2{clip-path:url(#clip-path);}.cls-3{fill:#addcff;}.cls-4{fill:#ff9f15;}.cls-5{fill:#f3d09f;}</style><clipPath id="clip-path"><rect class="cls-1" width="75" height="110" rx="5.48"/></clipPath></defs><g id="Layer_1" data-name="Layer 1"><g id="Card"><rect class="cls-1" width="75" height="110" rx="5.48"/><g class="cls-2"><path class="cls-3" d="M-65.33,23.67A395.92,395.92,0,0,0-13.74,36.26c17.85,3,35.81,5.35,53.57,8.87s35.31,8.58,53,12.95a342,342,0,0,0,54.32,9.17c7.39.61,9-11.35,1.75-13-16.2-3.58-32.94-4-49.48-4.32-16.69-.33-33.39-.21-50.08,0-16.42.2-32.83.62-49.25,1.15s-33.39-.25-49.4,3.94c-6.78,1.77-9.18,10.79-4.14,15.69,5.44,5.28,12.41,7.32,19.69,8.62,8.3,1.48,16.68,2.5,25.07,3.33,16.18,1.58,32.41,2.57,48.59,4.21a571.51,571.51,0,0,1,94.7,17.52c8.59,2.38,17.13,4.93,25.66,7.5,8.84,2.65,17.87,4.24,26.77,6.68,8,2.19,12.93-9.23,5.67-13.46-7.07-4.11-14-8.65-21.63-11.65-7.17-2.82-14.45-5.24-21.86-7.38a388.82,388.82,0,0,0-46-10.18C71.71,70.91,40,67.58,8.29,65.17c-8.83-.67-17.67-1.35-26.46-2.42-4.43-.54-8.86-1.2-13.24-2.06-3-.59-6.43-1.1-8.82-3.21l-4.14,15.69C-29.93,68-13.14,68.59,2,67.88q24.12-1.14,48.27-1.74c16-.4,32.07-.72,48.11-.66,16.27.06,32.46,1.28,48.71,1.77V54.07c-36.06.13-70.73-14.53-105.84-21C24,29.89,6.65,27.78-10.64,25s-35.22-5.74-51.7-12.18c-6.64-2.6-10,8.67-3,10.84Z"/></g><path class="cls-3" d="M69.89,1A4.11,4.11,0,0,1,74,5.11v99.78A4.11,4.11,0,0,1,69.89,109H5.11A4.11,4.11,0,0,1,1,104.89V5.11A4.11,4.11,0,0,1,5.11,1H69.89m0-1H5.11A5.13,5.13,0,0,0,0,5.11v99.78A5.13,5.13,0,0,0,5.11,110H69.89A5.13,5.13,0,0,0,75,104.89V5.11A5.13,5.13,0,0,0,69.89,0Z"/></g></g><g id="Item"><circle class="cls-4" cx="37.5" cy="55" r="31.21"/><path class="cls-5" d="M31.91,59.58,19.56,71.7A2.35,2.35,0,0,1,15.77,71l-4.92-11a2.35,2.35,0,0,1,2-3.3l17.27-1.07A2.34,2.34,0,0,1,31.91,59.58Z"/><path class="cls-5" d="M36.3,62.16,34.63,79.39a2.35,2.35,0,0,1-3.36,1.88L20.4,76a2.35,2.35,0,0,1-.59-3.81L32.35,60.23A2.35,2.35,0,0,1,36.3,62.16Z"/><path class="cls-5" d="M41.32,61.31l9.79,14.27a2.35,2.35,0,0,1-1.36,3.61L38,82.11a2.33,2.33,0,0,1-2.89-2.53l1.93-17.2A2.35,2.35,0,0,1,41.32,61.31Z"/><path class="cls-5" d="M44.62,57.44,61.3,62.08a2.33,2.33,0,0,1,1.26,3.63l-7.1,9.79a2.35,2.35,0,0,1-3.85-.08L42,61A2.35,2.35,0,0,1,44.62,57.44Z"/><path class="cls-5" d="M44.66,52.35l15.75-7.17a2.35,2.35,0,0,1,3.31,2l.85,12.07a2.34,2.34,0,0,1-3,2.41L45,56.73A2.34,2.34,0,0,1,44.66,52.35Z"/><path class="cls-5" d="M41.42,48.43l7.46-15.62a2.34,2.34,0,0,1,3.8-.62l8.41,8.7a2.35,2.35,0,0,1-.75,3.78L44.47,51.59A2.34,2.34,0,0,1,41.42,48.43Z"/><path class="cls-5" d="M36.41,47.5,32.09,30.74a2.34,2.34,0,0,1,2.52-2.91l12,1.26a2.34,2.34,0,0,1,1.86,3.37L40.78,48A2.34,2.34,0,0,1,36.41,47.5Z"/><path class="cls-5" d="M32,50,17.9,40A2.35,2.35,0,0,1,18,36.1l10-6.76a2.34,2.34,0,0,1,3.59,1.39l4.06,16.83A2.34,2.34,0,0,1,32,50Z"/><path class="cls-5" d="M30.21,54.78,13,56.13a2.34,2.34,0,0,1-2.43-3l3.33-11.63a2.34,2.34,0,0,1,3.64-1.24L31.42,50.56A2.34,2.34,0,0,1,30.21,54.78Z"/></g></svg>