<svg xmlns="http://www.w3.org/2000/svg" xmlns:xlink="http://www.w3.org/1999/xlink" viewBox="0 0 75 110"><defs><style>.cls-1{fill:#dff1ff;}.cls-2{clip-path:url(#clip-path);}.cls-3{fill:#addcff;}.cls-4{fill:#601d01;}.cls-5{fill:#dd600f;}.cls-6{fill:#8e2b02;}.cls-7{fill:#ac3803;}.cls-8{fill:#c54507;}</style><clipPath id="clip-path"><rect class="cls-1" width="75" height="110" rx="5.48"/></clipPath></defs><g id="Layer_1" data-name="Layer 1"><g id="Card"><rect class="cls-1" width="75" height="110" rx="5.48"/><g class="cls-2"><path class="cls-3" d="M-65.33,23.67A395.92,395.92,0,0,0-13.74,36.26c17.85,3,35.81,5.35,53.57,8.87s35.31,8.58,53,12.95a342,342,0,0,0,54.32,9.17c7.39.61,9-11.35,1.75-13-16.2-3.58-32.94-4-49.48-4.32-16.69-.33-33.39-.21-50.08,0-16.42.2-32.83.62-49.25,1.15s-33.39-.25-49.4,3.94c-6.78,1.77-9.18,10.79-4.14,15.69,5.44,5.28,12.41,7.32,19.69,8.62,8.3,1.48,16.68,2.5,25.07,3.33,16.18,1.58,32.41,2.57,48.59,4.21a571.51,571.51,0,0,1,94.7,17.52c8.59,2.38,17.13,4.93,25.66,7.5,8.84,2.65,17.87,4.24,26.77,6.68,8,2.19,12.93-9.23,5.67-13.46-7.07-4.11-14-8.65-21.63-11.65-7.17-2.82-14.45-5.24-21.86-7.38a388.82,388.82,0,0,0-46-10.18C71.71,70.91,40,67.58,8.29,65.17c-8.83-.67-17.67-1.35-26.46-2.42-4.43-.54-8.86-1.2-13.24-2.06-3-.59-6.43-1.1-8.82-3.21l-4.14,15.69C-29.93,68-13.14,68.59,2,67.88q24.12-1.14,48.27-1.74c16-.4,32.07-.72,48.11-.66,16.27.06,32.46,1.28,48.71,1.77V54.07c-36.06.13-70.73-14.53-105.84-21C24,29.89,6.65,27.78-10.64,25s-35.22-5.74-51.7-12.18c-6.64-2.6-10,8.67-3,10.84Z"/></g><path class="cls-3" d="M69.89,1A4.11,4.11,0,0,1,74,5.11v99.78A4.11,4.11,0,0,1,69.89,109H5.11A4.11,4.11,0,0,1,1,104.89V5.11A4.11,4.11,0,0,1,5.11,1H69.89m0-1H5.11A5.13,5.13,0,0,0,0,5.11v99.78A5.13,5.13,0,0,0,5.11,110H69.89A5.13,5.13,0,0,0,75,104.89V5.11A5.13,5.13,0,0,0,69.89,0Z"/></g></g><g id="Item"><path class="cls-4" d="M7,50.87a.83.83,0,0,1,0-.56,37.2,37.2,0,0,1,1.7-7.73,20.64,20.64,0,0,1,1.74-4.21m.08-.26c.25-.58.56-1.14.85-1.7a31.87,31.87,0,0,1,5.25-7.3,31,31,0,0,1,5.18-4.45,32.34,32.34,0,0,1,6.71-3.41,21.46,21.46,0,0,1,3.81-1,27,27,0,0,1,11.11.17,33.36,33.36,0,0,1,7.17,2.66,27,27,0,0,1,4.72,3.13A34.76,34.76,0,0,1,60.91,32a35.66,35.66,0,0,1,4.29,7.45,37.36,37.36,0,0,1,2.74,9.7,10.52,10.52,0,0,0,.41,2.61v6.41c-.19.06-.14.23-.15.36a40.8,40.8,0,0,1-.79,5,37.48,37.48,0,0,1-3.69,9.93,39.75,39.75,0,0,1-3.07,4.72,35.58,35.58,0,0,1-4.75,5.06,29,29,0,0,1-4.64,3.23,23,23,0,0,1-6.08,2.57,26.32,26.32,0,0,1-4.9,1c-.05,0-.09.08-.14.12h-.71a.56.56,0,0,0-.72,0h-.14l0-.39-.52.39H34.58a7.29,7.29,0,0,0-2.13-.51,35.76,35.76,0,0,1-4.6-1.29,19.86,19.86,0,0,1-3.3-1.55c.1-.29.11-.59-.24-.67s-.21.24-.23.42a.19.19,0,0,1-.23-.11c0-.2-.05-.27-.24-.25A1.52,1.52,0,0,1,22.9,86a29.85,29.85,0,0,1-5.18-4,9.06,9.06,0,0,1-1.31-1.24c-1-1.27-2-2.49-2.95-3.79a34.12,34.12,0,0,1-3.65-6.51,36.71,36.71,0,0,1-2.52-8.47,38.36,38.36,0,0,1-.42-11M60.8,41.92c-.3-.11-.26-.35-.33-.54a12.88,12.88,0,0,0-.7-2.59q-.5-.85-.93-1.74a6.47,6.47,0,0,1-.72-1.65,1.53,1.53,0,0,0-.89-1.18c-1-.54-2-1-2.94-1.65s-1.55-1.3-2.61-1.26a3.49,3.49,0,0,1-2-.78A3.69,3.69,0,0,0,48.61,30a6.06,6.06,0,0,1-3.38-2.18,7,7,0,0,0-2.39-2,2.3,2.3,0,0,0-.82-.34,3.68,3.68,0,0,1-2.6-1.19c-.42-.51-1.15-.27-1.41.43s-.75.84-1.32.35c-.8-.67-.9-.68-1.68-.07-.22.17-.46.32-.68.06s-.76-.28-1.18-.2a2.16,2.16,0,0,1-1.33-.06A1.49,1.49,0,0,0,29.61,26c0,.44-.24.62-.59.65a4,4,0,0,0-1.26.45c-.7.32-1.32.87-2.18.74a.54.54,0,0,0-.51.33c-.32.6-.86.7-1.47.81-.94.19-2,.38-2.3,1.49-.21.66-.77.15-1,.35s-.09.76-.6,1a4.06,4.06,0,0,0-2,2,1.35,1.35,0,0,1-.67.77,1,1,0,0,0-.59,1.24c.12.4,0,.56-.18.86-.25.47-.38,1-1,1.06-.06,0-.13.13-.17.21-.37.88-1,1.64-1.28,2.55-.09.27-.28.53-.19.82a1.82,1.82,0,0,1-.17,1.23,3.3,3.3,0,0,0-.11,2.75c.14.29,0,.59-.41.5a.3.3,0,0,0-.39.19,4,4,0,0,0-.35,2.75,1.21,1.21,0,0,1-.22,1.13,1.53,1.53,0,0,0-.33,1.64,1.21,1.21,0,0,1-.2,1,1.39,1.39,0,0,0-.18,1.4,2.15,2.15,0,0,1,0,1.79,2.54,2.54,0,0,0-.1,1.1c0,1.39.54,2.7.49,4.08a2.56,2.56,0,0,0,.43,1.76c.14.17.24.43,0,.56-.38.23-.3.57-.28.88a9.27,9.27,0,0,0,.61,2.45,21.93,21.93,0,0,1,.8,3.64,1,1,0,0,0,.58.91,1.9,1.9,0,0,1,1.15,1.27c.06.18.12.45.33.41.62-.12.49.3.51.64a.88.88,0,0,0,.1.4,29.23,29.23,0,0,0,1.64,2.8,16,16,0,0,0,2.64,3.11c.78.55,1.24,1.43,2.05,1.94.07,0,.1.2.12.32a.85.85,0,0,0,1,.81,1,1,0,0,1,1,.45c.42.56.89,1.12,1.75,1,.26,0,.55.18.82.18,1.07,0,1.93,1.16,3.11.53.14-.08.29.12.44.16.54.17.68.77,1.13,1a8.07,8.07,0,0,0,3.42,1c.84,0,1.7-.24,2.57-.18s1.69-.64,2.58-.85a1.89,1.89,0,0,0,1-.36c.21-.21.47-.2.59.17s.39.37.74.27c.55-.16,1-.55,1.54-.65a6,6,0,0,0,2.55-1.15c.12-.08.25-.21.38-.12.68.45,1.17,0,1.67-.33a1.26,1.26,0,0,1,1-.26c.9.26,1-.36,1.27-.92.42-.87.83-1.8,2.06-1.71.3,0,.45-.21.62-.42A33,33,0,0,1,56,77.87a4.69,4.69,0,0,0,1-1.44c.63-1.43,1.78-2.58,2.24-4.11a.83.83,0,0,1,.21-.29c.69-.82,1.29-1.66.81-2.82-.12-.28.12-.29.32-.32a.79.79,0,0,0,.71-.69A5.17,5.17,0,0,1,62,66.09a1.39,1.39,0,0,0,.11-1.42c-.16-.34-.05-.46.25-.67s.81-.57.83-1A17.13,17.13,0,0,1,64,60.38c.27-1.15,0-2.42.75-3.47a.24.24,0,0,0,0-.13,12.5,12.5,0,0,1-.39-4.24c0-2.1-.91-3.94-1.05-5.95a1.58,1.58,0,0,0-.32-.78,1.6,1.6,0,0,1-.26-1.36,2.39,2.39,0,0,0-.13-1.67c-.31-.79-.68-1.56-1-2.34-.08-.18-.2-.33-.43-.28s-.28.24-.29.44Z"/><path class="cls-5" d="M38,90.26l.52-.39,0,.39Z"/><path class="cls-6" d="M38.71,90.26a.56.56,0,0,1,.72,0Z"/><path class="cls-6" d="M60.8,41.92V40.6c0-.2.06-.39.29-.44s.35.1.43.28c.35.78.72,1.55,1,2.34a2.39,2.39,0,0,1,.13,1.67,1.6,1.6,0,0,0,.26,1.36,1.58,1.58,0,0,1,.32.78c.14,2,1.06,3.85,1.05,5.95a12.5,12.5,0,0,0,.39,4.24.24.24,0,0,1,0,.13C64,58,64.25,59.23,64,60.38A17.13,17.13,0,0,0,63.17,63c0,.44-.48.76-.83,1s-.41.33-.25.67A1.39,1.39,0,0,1,62,66.09a5.17,5.17,0,0,0-.77,2.11.79.79,0,0,1-.71.69c-.2,0-.44,0-.32.32.48,1.16-.12,2-.81,2.82a.83.83,0,0,0-.21.29c-.46,1.53-1.61,2.68-2.24,4.11a4.69,4.69,0,0,1-1,1.44,33,33,0,0,0-2.41,2.85c-.17.21-.32.44-.62.42-1.23-.09-1.64.84-2.06,1.71-.27.56-.37,1.18-1.27.92a1.26,1.26,0,0,0-1,.26c-.5.37-1,.78-1.67.33-.13-.09-.26,0-.38.12A6,6,0,0,1,44,85.63c-.51.1-1,.49-1.54.65-.35.1-.61.12-.74-.27s-.38-.38-.59-.17a1.89,1.89,0,0,1-1,.36c-.89.21-1.63.9-2.58.85s-1.73.21-2.57.18a8.07,8.07,0,0,1-3.42-1c-.45-.23-.59-.83-1.13-1-.15,0-.3-.24-.44-.16-1.18.63-2-.54-3.11-.53-.27,0-.56-.22-.82-.18-.86.11-1.33-.45-1.75-1a1,1,0,0,0-1-.45.85.85,0,0,1-1-.81c0-.12,0-.28-.12-.32-.81-.51-1.27-1.39-2.05-1.94a16,16,0,0,1-2.64-3.11,29.23,29.23,0,0,1-1.64-2.8.88.88,0,0,1-.1-.4c0-.34.11-.76-.51-.64-.21,0-.27-.23-.33-.41a1.9,1.9,0,0,0-1.15-1.27,1,1,0,0,1-.58-.91,21.93,21.93,0,0,0-.8-3.64,9.27,9.27,0,0,1-.61-2.45c0-.31-.1-.65.28-.88.23-.13.13-.39,0-.56A2.56,2.56,0,0,1,11.64,61c0-1.38-.5-2.69-.49-4.08a2.54,2.54,0,0,1,.1-1.1,2.15,2.15,0,0,0,0-1.79,1.39,1.39,0,0,1,.18-1.4,1.21,1.21,0,0,0,.2-1,1.53,1.53,0,0,1,.33-1.64,1.21,1.21,0,0,0,.22-1.13,4,4,0,0,1,.35-2.75.3.3,0,0,1,.39-.19c.45.09.55-.21.41-.5a3.3,3.3,0,0,1,.11-2.75,1.82,1.82,0,0,0,.17-1.23c-.09-.29.1-.55.19-.82.3-.91.91-1.67,1.28-2.55,0-.08.11-.21.17-.21.66-.06.79-.59,1-1.06.16-.3.3-.46.18-.86A1,1,0,0,1,17,34.65a1.35,1.35,0,0,0,.67-.77,4.06,4.06,0,0,1,2-2c.51-.26.34-.78.6-1s.79.31,1-.35c.35-1.11,1.36-1.3,2.3-1.49.61-.11,1.15-.21,1.47-.81a.54.54,0,0,1,.51-.33c.86.13,1.48-.42,2.18-.74A4,4,0,0,1,29,26.69c.35,0,.56-.21.59-.65a1.49,1.49,0,0,1,2.21-1.29,2.16,2.16,0,0,0,1.33.06c.42-.08.82-.2,1.18.2s.46.11.68-.06c.78-.61.88-.6,1.68.07.57.49,1.07.36,1.32-.35s1-.94,1.41-.43A3.68,3.68,0,0,0,42,25.43a2.3,2.3,0,0,1,.82.34,7,7,0,0,1,2.39,2A6.06,6.06,0,0,0,48.61,30a3.69,3.69,0,0,1,1.06.55,3.49,3.49,0,0,0,2,.78c1.06,0,1.8.74,2.61,1.26s2,1.11,2.94,1.65a1.53,1.53,0,0,1,.89,1.18,6.47,6.47,0,0,0,.72,1.65q.44.89.93,1.74a12.88,12.88,0,0,1,.7,2.59C60.54,41.57,60.5,41.81,60.8,41.92Zm-2,16.43-.14.29c-.27,0-.36.33-.7.32.19-.63.35-1.21.55-1.77a12.83,12.83,0,0,0,.69-1.94,13.91,13.91,0,0,1,1-2.69,19.78,19.78,0,0,0,.89-3.18,1.89,1.89,0,0,0-.05-1.2,10.52,10.52,0,0,1-.64-2.32c-.26-.89.21-1.87-.53-2.74-.57-.68-.44-1.82-1.32-2.38a.51.51,0,0,1-.14-.25c-.15-.5-.41-.85-1-.81a.33.33,0,0,1-.38-.26c-.09-.55-.47-1-.59-1.52A2.44,2.44,0,0,0,54.49,36a3.61,3.61,0,0,1-1.93-1,.56.56,0,0,0-.42-.23,1.77,1.77,0,0,1-1.4-.73,1,1,0,0,0-1.09-.3c-.28.08-.54.52-.88.13a3.42,3.42,0,0,1-.62-.86c-.43-1-.41-1-1-.21a.48.48,0,0,1-.56.2.39.39,0,0,1-.24-.52,1.44,1.44,0,0,0,0-.62c-.16-.67-.75-.86-1.25-1s-.86.46-1.22.77a1.25,1.25,0,0,1-1.55.24A.92.92,0,0,0,41,32.4c-.08.94.15,1.17,1.09,1,.42-.08.63,0,.79.35a5.53,5.53,0,0,1,.65,2.33c.31-.16.33-.48.48-.71s.14-.34.34-.32.31.24.32.42a1.36,1.36,0,0,0,.36.83,1,1,0,0,1,.19.93,2.72,2.72,0,0,1-1.93,1.91c-.5.19-.7.43-.54.94a.75.75,0,0,1-.28.94c-.37.23-.35.5-.27.85s.26,1-.09,1.29a15,15,0,0,0-1.82,1.56c0,.07-.21.09-.32.08a3.3,3.3,0,0,1-2-.64,1.63,1.63,0,0,0-1.09-.39c-.45.06-.5-.12-.61-.44-.18-.48-.34-.91-1.09-.82A1.1,1.1,0,0,1,34,41a1.44,1.44,0,0,0-.74-2,1.62,1.62,0,0,1-.74-1.07c-.16-.56.22-.94.8-.82a3.92,3.92,0,0,0,1.13,0c.65-.06,1.27-1,.89-1.36s-.44-.83-.71-1.21-.2-1.21-.77-1.53-.42-.6-.29-1,.4-.66-.05-.83-.9-.25-1.2.26c-.17.29-.33.58-.5.86s-.23.44-.48.25c-.45-.35-1-.43-1.47-.84a1.85,1.85,0,0,0-1.51-.64,1,1,0,0,1-.83-.12c-.43-.29-.9-.17-1,.37A2.2,2.2,0,0,1,25.24,33a6.67,6.67,0,0,0-1.53.88c-.12.12-.3.05-.47,0-.89-.26-1.79.08-1.63,1.05a.7.7,0,0,1-.23.71c-.59.37-1,1-1.61,1.27a1.83,1.83,0,0,0-.95,1.17,10.21,10.21,0,0,0-.8,2c0,.36-.41.56-.75.69a1,1,0,0,0-.63.43,2.74,2.74,0,0,0-.16,2.7,1,1,0,0,1-.09,1.26,6.69,6.69,0,0,0-.94,1.55,3.23,3.23,0,0,0,.12,2.71,7.23,7.23,0,0,0,1.22,2.37.8.8,0,0,1,0,.88c-.32-.16-.37-.46-.53-.68s-.35-1-.86-.9-.35.75-.35,1.18a3.39,3.39,0,0,1-.74,2.58c-.22.22-.12.47.06.71.37.49.7,1,1.09,1.49.24.3.29.47,0,.82a2.08,2.08,0,0,0-.62,1.6,5.13,5.13,0,0,0,.45,1.84,1.48,1.48,0,0,1,.14,1.18,8.1,8.1,0,0,0-.11,1.7c0,.56.45,1.13-.12,1.68-.13.13,0,.45.16.65s.41.38.41.56a5.93,5.93,0,0,0,1.06,3c.28.51.46.56.88.36.18-.09.35-.23.51,0s.05.4-.1.57-.36.48-.15.69c.57.58.21,1.76,1.31,2,.09,0,.14.24.2.36a1.28,1.28,0,0,0,.57.62,3.24,3.24,0,0,1,1.64,2.28,1.07,1.07,0,0,0,1,.95,2.46,2.46,0,0,1,2,1.45,2.69,2.69,0,0,0,2.22,1.75,5.65,5.65,0,0,0,1.92.22.92.92,0,0,1,.6.21,6.7,6.7,0,0,0,1.29.74c.73.23,1.46,1,2.29.25.49-.44.8-.35,1.09.22s1.46,1.18,2,1c1-.43,2.1-.42,2.93-1.17a.38.38,0,0,1,.51-.07,2.76,2.76,0,0,0,2.7,0c.45-.2,1-1,1.59,0,0,.06.23,0,.34,0,1,.19,1.47-.64,2.18-1,.15-.09.21-.24.47-.18a2.58,2.58,0,0,0,2.4-.7,3.85,3.85,0,0,0,.93-1.24,6.23,6.23,0,0,1,2.39-2.44,2.44,2.44,0,0,0,1.05-1.18,10.27,10.27,0,0,1,2-3.2,1.94,1.94,0,0,0,.48-.86c.19-.92.38-1.79,1.49-2a.58.58,0,0,0,.39-.69c0-.34-.29-.41-.54-.47a3.45,3.45,0,0,1-.92-.36c-.11-.07-.22-.13-.18-.27s.16-.16.28-.16a7.62,7.62,0,0,1,1.35,0c.42.09.87.06,1-.43a2.8,2.8,0,0,1,.44-.86c.21-.33.58-.83.12-1.12s-.32-.48,0-.71c.72-.49,1.2-1.06.81-2-.06-.13,0-.34.1-.48A2.34,2.34,0,0,0,60.46,60a.52.52,0,0,1,.26-.76,2,2,0,0,0,.78-1.07c.66-1.69.29-3.4.13-5.11a.51.51,0,0,0-.34-.43c-.19-.06-.31.09-.4.23a1.53,1.53,0,0,0-.31.47C60.11,55,59.24,56.61,58.8,58.35Z"/><path class="cls-6" d="M24.55,86.91l-.47-.25c0-.18-.12-.49.23-.42S24.65,86.62,24.55,86.91Z"/><path class="cls-6" d="M23.85,86.55a.23.23,0,0,1-.24-.25C23.8,86.28,23.89,86.35,23.85,86.55Z"/><path class="cls-7" d="M58.8,58.35c.44-1.74,1.31-3.33,1.78-5.07a1.53,1.53,0,0,1,.31-.47c.09-.14.21-.29.4-.23a.51.51,0,0,1,.34.43c.16,1.71.53,3.42-.13,5.11a2,2,0,0,1-.78,1.07.52.52,0,0,0-.26.76,2.34,2.34,0,0,1-.06,2.11c-.07.14-.16.35-.1.48.39,1-.09,1.52-.81,2-.34.23-.6.36,0,.71s.09.79-.12,1.12a2.8,2.8,0,0,0-.44.86c-.11.49-.56.52-1,.43a7.62,7.62,0,0,0-1.35,0c-.12,0-.24,0-.28.16s.07.2.18.27a3.45,3.45,0,0,0,.92.36c.25.06.51.13.54.47a.58.58,0,0,1-.39.69c-1.11.25-1.3,1.12-1.49,2a1.94,1.94,0,0,1-.48.86,10.27,10.27,0,0,0-2,3.2,2.44,2.44,0,0,1-1.05,1.18,6.23,6.23,0,0,0-2.39,2.44,3.85,3.85,0,0,1-.93,1.24,2.58,2.58,0,0,1-2.4.7c-.26-.06-.32.09-.47.18-.71.38-1.2,1.21-2.18,1-.11,0-.3,0-.34,0-.55-.94-1.14-.17-1.59,0a2.76,2.76,0,0,1-2.7,0,.38.38,0,0,0-.51.07c-.83.75-2,.74-2.93,1.17-.51.23-1.71-.42-2-1s-.6-.66-1.09-.22c-.83.74-1.56,0-2.29-.25a6.7,6.7,0,0,1-1.29-.74.92.92,0,0,0-.6-.21,5.65,5.65,0,0,1-1.92-.22,2.69,2.69,0,0,1-2.22-1.75,2.46,2.46,0,0,0-2-1.45,1.07,1.07,0,0,1-1-.95,3.24,3.24,0,0,0-1.64-2.28,1.28,1.28,0,0,1-.57-.62c-.06-.12-.11-.34-.2-.36-1.1-.22-.74-1.4-1.31-2-.21-.21,0-.48.15-.69s.27-.37.1-.57-.33,0-.51,0c-.42.2-.6.15-.88-.36a5.93,5.93,0,0,1-1.06-3c0-.18-.25-.38-.41-.56s-.29-.52-.16-.65c.57-.55.1-1.12.12-1.68a8.1,8.1,0,0,1,.11-1.7,1.48,1.48,0,0,0-.14-1.18,5.13,5.13,0,0,1-.45-1.84,2.08,2.08,0,0,1,.62-1.6c.29-.35.24-.52,0-.82-.39-.48-.72-1-1.09-1.49-.18-.24-.28-.49-.06-.71a3.39,3.39,0,0,0,.74-2.58c0-.43-.21-1,.35-1.18s.62.55.86.9.21.52.53.68a.8.8,0,0,0,0-.88,7.23,7.23,0,0,1-1.22-2.37,3.23,3.23,0,0,1-.12-2.71,6.69,6.69,0,0,1,.94-1.55A1,1,0,0,0,16.48,44a2.74,2.74,0,0,1,.16-2.7,1,1,0,0,1,.63-.43c.34-.13.72-.33.75-.69a10.21,10.21,0,0,1,.8-2,1.83,1.83,0,0,1,.95-1.17c.61-.3,1-.9,1.61-1.27a.7.7,0,0,0,.23-.71c-.16-1,.74-1.31,1.63-1.05.17.05.35.12.47,0A6.67,6.67,0,0,1,25.24,33a2.2,2.2,0,0,0,1.26-1.67c.08-.54.55-.66,1-.37a1,1,0,0,0,.83.12,1.85,1.85,0,0,1,1.51.64c.43.41,1,.49,1.47.84.25.19.37-.06.48-.25s.33-.57.5-.86c.3-.51.8-.41,1.2-.26s.17.52.05.83-.17.71.29,1,.44,1.05.77,1.53.32.86.71,1.21-.24,1.3-.89,1.36a3.92,3.92,0,0,1-1.13,0c-.58-.12-1,.26-.8.82A1.62,1.62,0,0,0,33.21,39,1.44,1.44,0,0,1,34,41a1.1,1.1,0,0,0,1.19,1.53c.75-.09.91.34,1.09.82.11.32.16.5.61.44a1.63,1.63,0,0,1,1.09.39,3.3,3.3,0,0,0,2,.64c.11,0,.27,0,.32-.08a15,15,0,0,1,1.82-1.56c.35-.31.19-.85.09-1.29s-.1-.62.27-.85a.75.75,0,0,0,.28-.94c-.16-.51,0-.75.54-.94a2.72,2.72,0,0,0,1.93-1.91,1,1,0,0,0-.19-.93,1.36,1.36,0,0,1-.36-.83c0-.18-.09-.4-.32-.42s-.25.19-.34.32-.17.55-.48.71a5.53,5.53,0,0,0-.65-2.33c-.16-.35-.37-.43-.79-.35-.94.19-1.17,0-1.09-1a.92.92,0,0,1,1.31-.63,1.25,1.25,0,0,0,1.55-.24c.36-.31.6-1,1.22-.77s1.09.38,1.25,1a1.44,1.44,0,0,1,0,.62.39.39,0,0,0,.24.52.48.48,0,0,0,.56-.2c.64-.81.62-.79,1,.21a3.42,3.42,0,0,0,.62.86c.34.39.6,0,.88-.13a1,1,0,0,1,1.09.3,1.77,1.77,0,0,0,1.4.73.56.56,0,0,1,.42.23,3.61,3.61,0,0,0,1.93,1,2.44,2.44,0,0,1,1.92,1.95c.12.55.5,1,.59,1.52a.33.33,0,0,0,.38.26c.59,0,.85.31,1,.81a.51.51,0,0,0,.14.25c.88.56.75,1.7,1.32,2.38.74.87.27,1.85.53,2.74A10.52,10.52,0,0,0,61,48.18a1.89,1.89,0,0,1,.05,1.2,19.78,19.78,0,0,1-.89,3.18,13.91,13.91,0,0,0-1,2.69,12.83,12.83,0,0,1-.69,1.94c-.2.56-.36,1.14-.55,1.77.34,0,.43-.37.7-.32a1.19,1.19,0,0,1-.12.61A20.93,20.93,0,0,1,55.66,63a15.31,15.31,0,0,1-1.56,1.34l-.86.15v-.7h0l.25-.13c.69-.43,1.13-1.17,1.77-1.61a8.35,8.35,0,0,0,2.42-3.32c.07-.13.19-.39-.05-.41-.74-.09-.37-.46-.23-.78s.27-.86.41-1.29c.23-.74,0-1.52.27-2.24a5.8,5.8,0,0,0,.14-4.16,30.89,30.89,0,0,1-1.44-6.71.84.84,0,0,0-.29-.63,8.8,8.8,0,0,0-2.09-1.43,2.52,2.52,0,0,1-.92-.5,2.7,2.7,0,0,0-2.46,0,4.24,4.24,0,0,1-1.92,1,.59.59,0,0,0-.51.34,4,4,0,0,0-.53,2.61c.15,1-.17,1.57-1.08,1.74a1,1,0,0,0-.64.29A4.76,4.76,0,0,0,45,48.74c0,.18.07.5-.2.54s-.4-.23-.52-.43c-.24-.41-.46-.54-.88-.17a.69.69,0,0,1-1,0,1.18,1.18,0,0,0-1.56.21,1.82,1.82,0,0,1-1,.52c-.33,0-.32-.47-.41-.75a2.27,2.27,0,0,0-1.66-1.57,1.57,1.57,0,0,1-.78-.44,1.06,1.06,0,0,0-1.61.17c-.58.87-1.2.83-1.67-.11-.11-.23-.18-.36-.38-.13-.49.59-1,.49-1.55.1a.68.68,0,0,0-.91,0,.67.67,0,0,1-.5.23c-.57-.07-.84.18-.85.75a1.23,1.23,0,0,1-.13.41.31.31,0,0,1-.33.22c-.17,0-.19-.18-.2-.33a3.48,3.48,0,0,1,.1-.91c.23-1.13.19-1.19-.63-1.73,0,.28.1.58-.25.74a19.73,19.73,0,0,1-1.81.83c-.35.12-.57.16-.44.6s0,.77-.45.82c-.68.09-1.31.17-1.55.94h-.13c0-.9-.32-1.19-1-.78a4.25,4.25,0,0,0-1.42,1,1,1,0,0,1-.86.41c-.87,0-.92.14-.52.91.31.6.2.91-.43,1.08-.32.09-.3.28-.37.56-.24.92.66,1.92-.24,2.77-.05,0,0,.23,0,.34a2.78,2.78,0,0,0,.34,1.21A17.49,17.49,0,0,0,20.37,60a12.24,12.24,0,0,1,.95,1.23c.05.1.16.21,0,.31a.23.23,0,0,1-.32-.05,5.08,5.08,0,0,1-1.65-2.1c-.31-1.1-.32-1.1-1.45-1.06-.75,0-.87.22-.5.85.55.92,1.13,1.82,1.69,2.73.31.51.54,1-.15,1.44-.36.23-.62.54-.07.91.22.15.1.42.08.66a3.74,3.74,0,0,0,.88,2.55c.39.52.92.37,1.43.42a6.92,6.92,0,0,1,.77.14c.14,0,.32.06.31.22s-.23.18-.38.19h-.35c-1.2,0-1.53.38-1.46,1.56,0,.12-.05.24,0,.35.18.8.68,1.49.81,2.3,0,0,.08.06.12.08a.9.9,0,0,1,.55.9.59.59,0,0,0,.29.55,2.06,2.06,0,0,1,.92,1.31,2.3,2.3,0,0,0,.86,1,3.61,3.61,0,0,0,2.6.66.85.85,0,0,1,.8,1.21c-.06.15-.18.28-.25.43a.91.91,0,0,0,.25,1c.26.28.57.14.84,0s.71-.38,1.05-.6c.5-.34.85-.29,1.14.28.16.3.29.64.68.78a5.79,5.79,0,0,0,3.4-.08c.52-.13.52,0,.51.38s0,.58.32.63a4.28,4.28,0,0,0,1.67.15,11,11,0,0,0,2.45-.72A5.9,5.9,0,0,1,42.45,80a1.47,1.47,0,0,0,1-.39,1.41,1.41,0,0,0,.51-1c0-.28.21-.67.47-.62s0,.43.07.66a1.75,1.75,0,0,1-.11.48c-.09.51.13.73.63.62a2.62,2.62,0,0,0,1.76-1.24c.12-.19.19-.36.41-.22.61.42.85.09,1-.46a1.18,1.18,0,0,1,.32-.55,16.7,16.7,0,0,0,1.84-2.81c.57.58.57.58,1.31.12.08-.05.19-.06.26-.11.45-.34.8-.73.54-1.36s0-.8.56-.76c.42,0,.93,0,1-.45.24-1,1.09-1.68,1.37-2.69s.39-1-.5-1.69l-.15-.28c.07-.32.32-.3.56-.3h1c.22,0,.33-.16.39-.36s-.08-.27-.23-.37c-.54-.34-.53-.5,0-.86.2-.13.38-.29.58-.41.66-.39,1-.88.71-1.69-.1-.26,0-.45.28-.63a1.64,1.64,0,0,0,.68-2c-.15-.36,0-.48.28-.64.5-.26.25-.76.28-1.16S59.06,58.36,58.8,58.35ZM46.12,33.69c0-.37.05-.73-.43-.68s-.78.19-.68.63-.11,1.13.56,1.12S46,34,46.12,33.69Z"/><path class="cls-8" d="M54.1,64.33A15.31,15.31,0,0,0,55.66,63a20.93,20.93,0,0,0,2.88-3.74,1.19,1.19,0,0,0,.12-.61l.14-.29c.26,0,.58,0,.56.37s.22.9-.28,1.16c-.31.16-.43.28-.28.64a1.64,1.64,0,0,1-.68,2c-.27.18-.38.37-.28.63.33.81-.05,1.3-.71,1.69-.2.12-.38.28-.58.41-.56.36-.57.52,0,.86.15.1.3.17.23.37s-.17.35-.39.36h-1c-.24,0-.49,0-.56.3-.24,0-.39-.21-.58-.24a4.67,4.67,0,0,1-2.84-1.19A12.71,12.71,0,0,0,50,64.48.32.32,0,0,1,49.9,64c.1-.14.25-.07.39,0,.94.2.94.2,1.1-.83,0-.19,0-.47.25-.45,1,.07,1.54-.61,2.19-1.11a7.58,7.58,0,0,0,2-1.56c.34-.52.42-.79-.24-1.06a1.34,1.34,0,0,1-.87-1.26c.4.07.5.63.9.42s.19-.6.22-.91,0-.44.21-.5c.69-.18.57-.76.65-1.25.17-1.14-.71-2.17-.36-3.32,0,0,0-.09-.06-.13-.25-.4-.08-.62.3-.84a.92.92,0,0,0,.26-1.49c-.27-.33-.58-.63-.85-1-.44-.53-1-1.05-.3-1.79a.38.38,0,0,0,.09-.19c.25-.76.16-.89-.62-.86a.52.52,0,0,1-.26-.1c-.68-.43-1.4.28-2.08-.08,0,0-.08,0-.12.06a5.13,5.13,0,0,1-1.6.58c-.52.11-.73.33-.57.9s0,.81-.6.85a.75.75,0,0,0-.72,1c.14.35.46.78,0,1s-.4-.42-.58-.66-.23-.4-.49-.32-.29.35-.22.6a.88.88,0,0,1,0,.82,1,1,0,0,0,.06,1.29c.17.21.36.55,0,.73s-.33.45-.37.76a1.1,1.1,0,0,1-.43.89,5.06,5.06,0,0,0,0-1.19,2.89,2.89,0,0,0-.48-.94,3,3,0,0,1-.57-.89.49.49,0,0,0-.73-.34.58.58,0,0,0-.37.8l.25.66c.15.41.09.66-.41.76a1.66,1.66,0,0,0-1.17,1.7c.09.56-.11,1-.63,1-.93,0-1.24.53-1.53,1.2-.07.15-.14.41-.31.31-.63-.4-1.3,0-1.94-.19-.37-.1-.73-.29-.57-.64a1.12,1.12,0,0,0-.45-1.51,1.74,1.74,0,0,1-.54-.82c-.21-.74-.6-.59-1.05-.3a1,1,0,0,0-.57.76c0,.22-.09.33-.35.34-.8,0-1.34-.85-2.2-.59a.22.22,0,0,1-.08-.1c-.11-.86-.78-1.39-1.18-2.08-.24-.42-.59-.45-1-.48-.74-.07-1.46.18-2.19.14a.67.67,0,0,0-.81.66c0,.18.07.39-.13.52s-.22-.16-.27-.28c-.24-.52-.71-.38-1-.25-.49.18,0,.43.05.65.15.38.21.75-.21,1s-.85.92-1.45,1.22c-.26.12-.71.58-.34,1,.75.94.65,1.63-.39,2.32s-1.5,2.7-.58,3.53a39.48,39.48,0,0,1,3.9,3.86c.31.38.85.54,1.1,1a1.32,1.32,0,0,0,1.1.68c1.69.19,3.3,1.07,5.06.58a.5.5,0,0,1,.21,0c.15,0,.3.07.29.25s-.16.15-.27.18a6.91,6.91,0,0,1-2,.15,17.37,17.37,0,0,1-3.78-.57.65.65,0,0,0-.67.11,1.55,1.55,0,0,1-1,.48c-1,.24-1.18.73-.54,1.46a.79.79,0,0,1,0,1,.9.9,0,0,0,.28,1.3c.45.25.81-.18,1-.65.05-.14.11-.28.29-.28a.33.33,0,0,1,.29.27c.2.73.79,1.39.35,2.22-.11.22-.15.52.2.56s.55.36.59.74.21.52.47.35a1.69,1.69,0,0,1,2.12-.08h.07c1.27,0,2.55.08,3.82.09.28,0,.35,0,.27.3s-.49.33-.15.56c.16.11.46.05.69,0s.72-.38,1.09-.19a1.34,1.34,0,0,0,1.91-.5c.26-.35.49-.38.66.06s.38.37.72.18A2.62,2.62,0,0,0,43,75c.06-.17.2-.39.42-.27s.08.29,0,.45L43,76.49c-.06.15-.17.31,0,.45a.32.32,0,0,0,.4,0c.51-.39,1.21-.68,1.28-1.39a6.64,6.64,0,0,1,.56-1.75,8.74,8.74,0,0,1,1-1.59,1.93,1.93,0,0,1-.12,1.08,7.36,7.36,0,0,0-.8,2c0,.32-.18.71.13.93s.48-.16.68-.33a.21.21,0,0,1,.12-.07c1.11-.13,1.44-.91,1.6-1.86.07-.41.22-.81.72-.32a.32.32,0,0,0,.32.09,2,2,0,0,0,1-1.68c0-.36-.38-.64-.25-1.16a2,2,0,0,1,.65,1.06c.12.48.35.62.88.33s.45-.89.41-1.43a1.65,1.65,0,0,0,2.19-.48c.47-.46.51-1.12.88-1.57A1.27,1.27,0,0,0,55,67.48c.89.66.77.66.5,1.69s-1.13,1.68-1.37,2.69c-.1.44-.61.48-1,.45-.59,0-.8.19-.56.76s-.09,1-.54,1.36c-.07,0-.18.06-.26.11C51,75,51,75,50.38,74.42a16.7,16.7,0,0,1-1.84,2.81,1.18,1.18,0,0,0-.32.55c-.14.55-.38.88-1,.46-.22-.14-.29,0-.41.22a2.62,2.62,0,0,1-1.76,1.24c-.5.11-.72-.11-.63-.62a1.75,1.75,0,0,0,.11-.48c0-.23.3-.59-.07-.66s-.43.34-.47.62a1.41,1.41,0,0,1-.51,1,1.47,1.47,0,0,1-1,.39,5.9,5.9,0,0,0-3.28.65,11,11,0,0,1-2.45.72,4.28,4.28,0,0,1-1.67-.15c-.32,0-.33-.36-.32-.63s0-.51-.51-.38a5.79,5.79,0,0,1-3.4.08c-.39-.14-.52-.48-.68-.78-.29-.57-.64-.62-1.14-.28-.34.22-.7.4-1.05.6s-.58.3-.84,0a.91.91,0,0,1-.25-1c.07-.15.19-.28.25-.43a.85.85,0,0,0-.8-1.21,3.61,3.61,0,0,1-2.6-.66,2.3,2.3,0,0,1-.86-1,2.06,2.06,0,0,0-.92-1.31.59.59,0,0,1-.29-.55.9.9,0,0,0-.55-.9s-.11-.05-.12-.08c-.13-.81-.63-1.5-.81-2.3,0-.11,0-.23,0-.35-.07-1.18.26-1.53,1.46-1.56H22c.15,0,.38.05.38-.19s-.17-.2-.31-.22a6.92,6.92,0,0,0-.77-.14c-.51,0-1,.1-1.43-.42A3.74,3.74,0,0,1,19,64.94c0-.24.14-.51-.08-.66-.55-.37-.29-.68.07-.91.69-.44.46-.93.15-1.44C18.56,61,18,60.12,17.43,59.2c-.37-.63-.25-.82.5-.85,1.13,0,1.14,0,1.45,1.06A5.08,5.08,0,0,0,21,61.51a.23.23,0,0,0,.32.05c.13-.1,0-.21,0-.31A12.24,12.24,0,0,0,20.37,60a17.49,17.49,0,0,1-1.16-3.2,2.78,2.78,0,0,1-.34-1.21c0-.11-.06-.29,0-.34.9-.85,0-1.85.24-2.77.07-.28,0-.47.37-.56.63-.17.74-.48.43-1.08-.4-.77-.35-.87.52-.91a1,1,0,0,0,.86-.41,4.25,4.25,0,0,1,1.42-1c.71-.41,1.06-.12,1,.78h.13c.24-.77.87-.85,1.55-.94.42-.05.56-.43.45-.82s.09-.48.44-.6a19.73,19.73,0,0,0,1.81-.83c.35-.16.24-.46.25-.74.82.54.86.6.63,1.73a3.48,3.48,0,0,0-.1.91c0,.15,0,.3.2.33a.31.31,0,0,0,.33-.22,1.23,1.23,0,0,0,.13-.41c0-.57.28-.82.85-.75a.67.67,0,0,0,.5-.23.68.68,0,0,1,.91,0c.54.39,1.06.49,1.55-.1.2-.23.27-.1.38.13.47.94,1.09,1,1.67.11A1.06,1.06,0,0,1,37,46.65a1.57,1.57,0,0,0,.78.44,2.27,2.27,0,0,1,1.66,1.57c.09.28.08.77.41.75a1.82,1.82,0,0,0,1-.52,1.18,1.18,0,0,1,1.56-.21.69.69,0,0,0,1,0c.42-.37.64-.24.88.17.12.2.27.47.52.43s.17-.36.2-.54a4.76,4.76,0,0,1,1.34-2.21,1,1,0,0,1,.64-.29c.91-.17,1.23-.72,1.08-1.74a4,4,0,0,1,.53-2.61.59.59,0,0,1,.51-.34,4.24,4.24,0,0,0,1.92-1,2.7,2.7,0,0,1,2.46,0,2.52,2.52,0,0,0,.92.5,8.8,8.8,0,0,1,2.09,1.43.84.84,0,0,1,.29.63,30.89,30.89,0,0,0,1.44,6.71A5.8,5.8,0,0,1,58.1,54c-.3.72,0,1.5-.27,2.24-.14.43-.24.87-.41,1.29s-.51.69.23.78c.24,0,.12.28.05.41A8.35,8.35,0,0,1,55.28,62c-.64.44-1.08,1.18-1.77,1.61l-.25.13c0-.32.37-.73-.12-.92-.27-.11-.52.15-.68.39s-.33.47-.12.7.42,0,.64-.1l.27-.06v.7c-.23.17-.47.37-.31.68s.47.2.71.16a2.55,2.55,0,0,1,1,0,.42.42,0,0,0,.56-.45.56.56,0,0,0-.51-.64A2.31,2.31,0,0,0,54.1,64.33ZM28.41,67.68c-.07-.08-.14-.18-.22-.26-1.28-1.25-2.45-2.62-3.84-3.76-.12-.09-.22-.2-.37-.09a.44.44,0,0,0-.2.43,2.35,2.35,0,0,0,.66,1.45,17.76,17.76,0,0,1,2.44,1.9,3.2,3.2,0,0,0,.94.62C28.07,68.1,28.34,68.07,28.41,67.68Zm-2.14.7c.29-.12.61.06.71-.24s-.19-.42-.35-.57a5.3,5.3,0,0,0-1.93-1.26c-.29-.1-.64-.26-.84,0a.87.87,0,0,0,.08,1C24.5,68.25,25.55,68,26.27,68.38Z"/><path class="cls-5" d="M55,67.48a1.27,1.27,0,0,1-.29,1.28c-.37.45-.41,1.11-.88,1.57a1.65,1.65,0,0,1-2.19.48c0,.54.24,1.07-.41,1.43s-.76.15-.88-.33a2,2,0,0,0-.65-1.06c-.13.52.21.8.25,1.16a2,2,0,0,1-1,1.68.32.32,0,0,1-.32-.09c-.5-.49-.65-.09-.72.32-.16,1-.49,1.73-1.6,1.86a.21.21,0,0,0-.12.07c-.2.17-.36.56-.68.33s-.15-.61-.13-.93a7.36,7.36,0,0,1,.8-2,1.93,1.93,0,0,0,.12-1.08,8.74,8.74,0,0,0-1,1.59,6.64,6.64,0,0,0-.56,1.75c-.07.71-.77,1-1.28,1.39a.32.32,0,0,1-.4,0c-.17-.14-.06-.3,0-.45l.51-1.33c.06-.16.14-.37,0-.45s-.36.1-.42.27a2.62,2.62,0,0,1-1.19,1.43c-.34.19-.56.23-.72-.18s-.4-.41-.66-.06a1.34,1.34,0,0,1-1.91.5c-.37-.19-.72.17-1.09.19s-.53.07-.69,0c-.34-.23.1-.37.15-.56s0-.3-.27-.3c-1.27,0-2.55,0-3.82-.09h-.07a1.69,1.69,0,0,0-2.12.08c-.26.17-.44-.07-.47-.35s-.11-.69-.59-.74-.31-.34-.2-.56c.44-.83-.15-1.49-.35-2.22a.33.33,0,0,0-.29-.27c-.18,0-.24.14-.29.28-.16.47-.52.9-1,.65a.9.9,0,0,1-.28-1.3.79.79,0,0,0,0-1c-.64-.73-.46-1.22.54-1.46a1.55,1.55,0,0,0,1-.48.65.65,0,0,1,.67-.11,17.37,17.37,0,0,0,3.78.57,6.91,6.91,0,0,0,2-.15c.11,0,.27,0,.27-.18s-.14-.22-.29-.25a.5.5,0,0,0-.21,0c-1.76.49-3.37-.39-5.06-.58a1.32,1.32,0,0,1-1.1-.68c-.25-.46-.79-.62-1.1-1a39.48,39.48,0,0,0-3.9-3.86c-.92-.83-.59-2.75.58-3.53s1.14-1.38.39-2.32c-.37-.47.08-.93.34-1,.6-.3.9-.9,1.45-1.22s.36-.62.21-1c-.09-.22-.54-.47-.05-.65.33-.13.8-.27,1,.25,0,.12.07.28.27.28s.11-.34.13-.52a.67.67,0,0,1,.81-.66c.73,0,1.45-.21,2.19-.14.43,0,.78.06,1,.48.4.69,1.07,1.22,1.18,2.08a.22.22,0,0,0,.08.1c.86-.26,1.4.61,2.2.59.26,0,.33-.12.35-.34a1,1,0,0,1,.57-.76c.45-.29.84-.44,1.05.3a1.74,1.74,0,0,0,.54.82,1.12,1.12,0,0,1,.45,1.51c-.16.35.2.54.57.64.64.18,1.31-.21,1.94.19.17.1.24-.16.31-.31.29-.67.6-1.25,1.53-1.2.52,0,.72-.4.63-1a1.66,1.66,0,0,1,1.17-1.7c.5-.1.56-.35.41-.76l-.25-.66a.58.58,0,0,1,.37-.8.49.49,0,0,1,.73.34,3,3,0,0,0,.57.89,2.89,2.89,0,0,1,.48.94,5.06,5.06,0,0,1,0,1.19,1.1,1.1,0,0,0,.43-.89c0-.31,0-.58.37-.76s.18-.52,0-.73a1,1,0,0,1-.06-1.29.88.88,0,0,0,0-.82c-.07-.25-.07-.5.22-.6s.36.14.49.32.2.82.58.66.15-.62,0-1a.75.75,0,0,1,.72-1c.63,0,.74-.39.6-.85s0-.79.57-.9a5.13,5.13,0,0,0,1.6-.58s.1-.07.12-.06c.68.36,1.4-.35,2.08.08a.52.52,0,0,0,.26.1c.78,0,.87.1.62.86a.38.38,0,0,1-.09.19c-.74.74-.14,1.26.3,1.79.27.33.58.63.85,1a.92.92,0,0,1-.26,1.49c-.38.22-.55.44-.3.84,0,0,.07.09.06.13-.35,1.15.53,2.18.36,3.32-.08.49,0,1.07-.65,1.25-.21.06-.19.31-.21.5s.14.71-.22.91-.5-.35-.9-.42A1.34,1.34,0,0,0,55.56,59c.66.27.58.54.24,1.06a7.58,7.58,0,0,1-2,1.56c-.65.5-1.22,1.18-2.19,1.11-.21,0-.22.26-.25.45-.16,1-.16,1-1.1.83-.14,0-.29-.1-.39,0a.32.32,0,0,0,.05.45,12.71,12.71,0,0,1,1.43,1.29A4.67,4.67,0,0,0,54.22,67c.19,0,.34.26.58.24Z"/><path class="cls-5" d="M54.1,64.33a2.31,2.31,0,0,1,.62-.11.56.56,0,0,1,.51.64.42.42,0,0,1-.56.45,2.55,2.55,0,0,0-1,0c-.24,0-.57.11-.71-.16s.08-.51.31-.68Z"/><path class="cls-6" d="M46.12,33.69c-.14.34.08,1.05-.55,1.07s-.47-.71-.56-1.12.31-.59.68-.63S46.12,33.32,46.12,33.69Z"/><path class="cls-5" d="M28.41,67.68c-.07.39-.34.42-.59.29a3.2,3.2,0,0,1-.94-.62,17.76,17.76,0,0,0-2.44-1.9A2.35,2.35,0,0,1,23.78,64a.44.44,0,0,1,.2-.43c.15-.11.25,0,.37.09,1.39,1.14,2.56,2.51,3.84,3.76C28.27,67.5,28.34,67.6,28.41,67.68Z"/><path class="cls-5" d="M26.27,68.38c-.72-.4-1.77-.13-2.33-1.07a.87.87,0,0,1-.08-1c.2-.27.55-.11.84,0a5.3,5.3,0,0,1,1.93,1.26c.16.15.43.31.35.57S26.56,68.26,26.27,68.38Z"/><path class="cls-5" d="M53.25,63.78l-.27.06c-.22,0-.43.32-.64.1s0-.49.12-.7.41-.5.68-.39c.49.19.11.6.12.92Z"/></g></svg>