<svg xmlns="http://www.w3.org/2000/svg" xmlns:xlink="http://www.w3.org/1999/xlink" viewBox="0 0 75 110"><defs><style>.cls-1{fill:#dff1ff;}.cls-2,.cls-8,.cls-9{stroke:#188f00;stroke-miterlimit:10;stroke-width:3px;}.cls-2,.cls-5{fill:url(#radial-gradient);}.cls-3{clip-path:url(#clip-path);}.cls-4{fill:#addcff;}.cls-6{clip-path:url(#clip-path-2);}.cls-7{fill:#00e900;opacity:0.39;}.cls-8{fill:none;}.cls-9{fill:url(#radial-gradient-3);}</style><radialGradient id="radial-gradient" cx="45.13" cy="70.06" fx="32.20859758185499" r="34.84" gradientTransform="matrix(0.58, 0.46, -0.4, 0.61, 38.97, -3.3)" gradientUnits="userSpaceOnUse"><stop offset="0" stop-color="#cfffaa"/><stop offset="1" stop-color="#fff"/></radialGradient><clipPath id="clip-path"><rect class="cls-1" width="75" height="110" rx="5.48"/></clipPath><clipPath id="clip-path-2"><path class="cls-2" d="M37.81,45.68h0A13.85,13.85,0,0,1,51.66,59.53V70.37a3,3,0,0,1-3,3H27a3,3,0,0,1-3-3V59.53A13.85,13.85,0,0,1,37.81,45.68Z"/></clipPath><radialGradient id="radial-gradient-3" cx="32.1" cy="36.54" fx="19.170860329254715" r="34.84" gradientTransform="matrix(0.81, 0.46, -0.55, 0.61, 26.21, -3.32)" gradientUnits="userSpaceOnUse"><stop offset="0" stop-color="#6ed121"/><stop offset="1" stop-color="#bbff87"/></radialGradient></defs><g id="Layer_1" data-name="Layer 1"><g id="Card"><rect class="cls-1" width="75" height="110" rx="5.48"/><g class="cls-3"><path class="cls-4" d="M-65.33,23.67A395.92,395.92,0,0,0-13.74,36.26c17.85,3,35.81,5.35,53.57,8.87s35.31,8.58,53,12.95a342,342,0,0,0,54.32,9.17c7.39.61,9-11.35,1.75-13-16.2-3.58-32.94-4-49.48-4.32-16.69-.33-33.39-.21-50.08,0-16.42.2-32.83.62-49.25,1.15s-33.39-.25-49.4,3.94c-6.78,1.77-9.18,10.79-4.14,15.69,5.44,5.28,12.41,7.32,19.69,8.62,8.3,1.48,16.68,2.5,25.07,3.33,16.18,1.58,32.41,2.57,48.59,4.21a571.51,571.51,0,0,1,94.7,17.52c8.59,2.38,17.13,4.93,25.66,7.5,8.84,2.65,17.87,4.24,26.77,6.68,8,2.19,12.93-9.23,5.67-13.46-7.07-4.11-14-8.65-21.63-11.65-7.17-2.82-14.45-5.24-21.86-7.38a388.82,388.82,0,0,0-46-10.18C71.71,70.91,40,67.58,8.29,65.17c-8.83-.67-17.67-1.35-26.46-2.42-4.43-.54-8.86-1.2-13.24-2.06-3-.59-6.43-1.1-8.82-3.21l-4.14,15.69C-29.93,68-13.14,68.59,2,67.88q24.12-1.14,48.27-1.74c16-.4,32.07-.72,48.11-.66,16.27.06,32.46,1.28,48.71,1.77V54.07c-36.06.13-70.73-14.53-105.84-21C24,29.89,6.65,27.78-10.64,25s-35.22-5.74-51.7-12.18c-6.64-2.6-10,8.67-3,10.84Z"/></g><path class="cls-4" d="M69.89,1A4.11,4.11,0,0,1,74,5.11v99.78A4.11,4.11,0,0,1,69.89,109H5.11A4.11,4.11,0,0,1,1,104.89V5.11A4.11,4.11,0,0,1,5.11,1H69.89m0-1H5.11A5.13,5.13,0,0,0,0,5.11v99.78A5.13,5.13,0,0,0,5.11,110H69.89A5.13,5.13,0,0,0,75,104.89V5.11A5.13,5.13,0,0,0,69.89,0Z"/></g></g><g id="Mushroom"><path class="cls-5" d="M37.81,45.68h0A13.85,13.85,0,0,1,51.66,59.53V70.37a3,3,0,0,1-3,3H27a3,3,0,0,1-3-3V59.53A13.85,13.85,0,0,1,37.81,45.68Z"/><g class="cls-6"><path class="cls-7" d="M67.48,50.43c-17.2-.56-41.06,9-44.67,29.27l-1.4-22.31L32.22,44.12Z"/></g><path class="cls-8" d="M37.81,45.68h0A13.85,13.85,0,0,1,51.66,59.53V70.37a3,3,0,0,1-3,3H27a3,3,0,0,1-3-3V59.53A13.85,13.85,0,0,1,37.81,45.68Z"/><path class="cls-9" d="M32.27,22.74H43.36A13.85,13.85,0,0,1,57.2,36.58V47.43a3,3,0,0,1-3,3H21.42a3,3,0,0,1-3-3V36.58A13.85,13.85,0,0,1,32.27,22.74Z"/></g></svg>